<?xml version="1.0" encoding="utf-8"?>
<svg viewBox="0 0 23 23" xmlns="http://www.w3.org/2000/svg" xmlns:xlink="http://www.w3.org/1999/xlink">
  <style>
    :root>svg {
      display: none
    }

    :root>svg:target {
      display: block
    }
  </style>

  <symbol id="header__logo" width="152" height="39" viewBox="0 0 152 39" fill="none" xmlns="http://www.w3.org/2000/svg">
    <path fill-rule="evenodd" clip-rule="evenodd" d="M19.8717 35.9408C10.6341 35.9408 3.11596 28.5647 3.11596 19.4987C3.11596 10.4314 10.6341 3.05924 19.873 3.05924C29.1119 3.05924 36.6287 10.4314 36.6287 19.4987C36.6287 28.5647 29.1119 35.9408 19.873 35.9408H19.8717ZM3.11596 35.9408V29.9774C4.67513 32.3724 6.74932 34.4073 9.19451 35.9408H3.11596ZM3.11596 3.05924H9.19451C6.74826 4.59141 4.67381 6.62656 3.11596 9.02264V3.05924ZM19.873 0H0V39H19.8717C30.8475 39 39.7433 30.2691 39.7433 19.4987C39.7447 8.73091 30.8488 0 19.873 0ZM57.4892 14.8389C58.5978 14.8389 59.5733 14.6312 60.4141 14.2134C61.2282 13.8241 61.9043 13.2058 62.3556 12.438C62.8076 11.6666 63.0336 10.7757 63.0336 9.75986C63.0336 8.74405 62.8076 7.85046 62.3556 7.0804C61.9029 6.31339 61.2272 5.695 60.4141 5.30373C59.5733 4.88978 58.5978 4.67953 57.4906 4.67953H53.823V14.8376H57.4906L57.4892 14.8389ZM51.0192 2.34962H57.6197C59.2302 2.34962 60.6603 2.65712 61.9116 3.27212C63.1628 3.88581 64.1328 4.75312 64.823 5.87405C65.5132 6.99629 65.859 8.292 65.859 9.75986C65.859 11.2264 65.5132 12.5221 64.823 13.6444C64.1328 14.7653 63.1628 15.6339 61.9116 16.2463C60.6603 16.8613 59.2302 17.1662 57.6197 17.1662H51.0178V2.35093L51.0192 2.34962ZM68.5781 17.1688H71.2743V5.86485H68.5781V17.1688ZM68.7072 3.54677C68.547 3.40323 68.4199 3.22793 68.3345 3.03259C68.2491 2.83725 68.2074 2.62636 68.2121 2.41401C68.2121 1.96196 68.3776 1.58612 68.7072 1.28257C69.0382 0.979008 69.4472 0.826572 69.9369 0.826572C70.4267 0.826572 70.8357 0.969809 71.1666 1.26023C71.4976 1.54933 71.6631 1.91465 71.6631 2.35093C71.6631 2.81744 71.5016 3.20773 71.1787 3.52574C70.8558 3.84376 70.4401 4.00276 69.9369 4.00276C69.4485 4.00276 69.0382 3.85033 68.7072 3.54677ZM82.6107 13.5156C83.2645 12.9163 83.5928 12.1384 83.5928 11.1765C83.5928 10.2329 83.2645 9.46155 82.6107 8.86889C81.9554 8.27755 81.1173 7.98056 80.0961 7.98056C79.0628 7.98056 78.2179 8.27623 77.5627 8.86889C76.9088 9.46155 76.5805 10.2329 76.5805 11.1765C76.5805 12.1384 76.9088 12.9163 77.5627 13.5156C78.2179 14.1174 79.0628 14.417 80.0961 14.417C81.1173 14.417 81.9554 14.1174 82.6107 13.5156ZM86.2459 5.86354V15.4539C86.2459 19.4356 84.174 21.4225 80.0342 21.4225C78.9689 21.4285 77.908 21.2896 76.8819 21.0099C75.8904 20.7339 75.071 20.3358 74.4239 19.8154L75.632 17.8245C76.1352 18.2332 76.7702 18.563 77.5425 18.8101C78.3107 19.0545 79.0897 19.178 79.8835 19.178C81.1455 19.178 82.0738 18.8968 82.6658 18.3318C83.2551 17.7667 83.5498 16.9073 83.5498 15.7482V15.1569C83.0869 15.651 82.5272 16.0242 81.868 16.2791C81.1725 16.5389 80.433 16.6681 79.6884 16.6602C78.5933 16.6602 77.6058 16.4303 76.7218 15.9729C75.8537 15.5288 75.1285 14.8583 74.627 14.036C74.1158 13.2015 73.8628 12.2514 73.8628 11.1765C73.8628 10.1068 74.1171 9.15668 74.627 8.33142C75.1396 7.50485 75.8379 6.86883 76.7218 6.41415C77.6058 5.96341 78.5933 5.73738 79.6884 5.73738C80.4658 5.7276 81.2377 5.86412 81.9622 6.1395C82.6456 6.4102 83.2161 6.81626 83.6789 7.36687V5.86354H86.2459ZM89.783 17.1688H92.4792V5.86485H89.783V17.1688ZM89.9122 3.54677C89.7517 3.40335 89.6243 3.2281 89.5387 3.03275C89.4531 2.83741 89.4112 2.62646 89.4157 2.41401C89.4157 1.96196 89.5812 1.58612 89.9122 1.28257C90.2432 0.979008 90.6522 0.826572 91.1419 0.826572C91.6303 0.826572 92.0406 0.969809 92.3702 1.26023C92.7012 1.54933 92.868 1.91465 92.868 2.35093C92.868 2.81744 92.7066 3.20773 92.3837 3.52574C92.0594 3.84376 91.6437 4.00276 91.1419 4.00276C90.6522 4.00276 90.2432 3.85033 89.9122 3.54677ZM102.941 16.5538C102.625 16.8087 102.241 16.9993 101.785 17.1254C101.319 17.2542 100.837 17.3184 100.353 17.316C99.0879 17.316 98.1097 16.994 97.4195 16.3435C96.7294 15.693 96.3836 14.7482 96.3836 13.5051V8.06598H94.4866V5.94895H96.3836V3.36936H99.0798V5.94895H102.165V8.06729H99.0798V13.442C99.0798 13.9939 99.217 14.4144 99.4901 14.7035C99.7632 14.9926 100.159 15.1345 100.675 15.1345C101.281 15.1345 101.783 14.9808 102.186 14.6707L102.94 16.5538H102.941ZM110.997 14.9348C111.522 14.6326 111.895 14.1989 112.11 13.6325V12.3197H109.325C107.775 12.3197 106.996 12.8217 106.996 13.8231C106.996 14.3027 107.19 14.6864 107.579 14.9677C107.966 15.2502 108.506 15.3882 109.199 15.3882C109.874 15.3882 110.473 15.2384 110.997 14.9348ZM113.457 6.93584C114.356 7.73219 114.806 8.93197 114.806 10.5431V17.1662H112.261V15.7916C111.914 16.2969 111.423 16.691 110.848 16.9244C110.236 17.1859 109.5 17.3186 108.635 17.3186C107.774 17.3186 107.018 17.1714 106.371 16.8823C105.723 16.5932 105.224 16.1911 104.873 15.676C104.519 15.1592 104.335 14.5498 104.343 13.9282C104.343 12.9124 104.729 12.099 105.497 11.4853C106.267 10.869 107.478 10.5641 109.13 10.5641H112.11V10.3933C112.11 9.60216 111.868 8.99768 111.386 8.57453C110.905 8.15139 110.19 7.93719 109.242 7.93719C108.594 7.93719 107.957 8.03575 107.331 8.23549C106.706 8.43261 106.177 8.70857 105.744 9.06075L104.687 7.13559C105.293 6.68091 106.018 6.33793 106.867 6.09613C107.745 5.8543 108.653 5.73398 109.565 5.7387C111.26 5.7387 112.558 6.13556 113.457 6.93453V6.93584ZM118.256 17.1675H120.952V1.46128H118.256V17.1675ZM127.226 12.5063H134.446V10.0621H127.226V12.5063ZM58.396 33.4834C59.0418 32.8342 59.3661 31.9787 59.3661 30.9209C59.3661 29.8617 59.0432 29.0089 58.396 28.3584C57.7489 27.7105 56.9295 27.3859 55.9366 27.3859C54.9451 27.3859 54.1271 27.7105 53.488 28.3584C52.8476 29.0089 52.5287 29.8617 52.5287 30.9209C52.5287 31.9787 52.8476 32.8342 53.488 33.4834C54.1271 34.1299 54.9451 34.4571 55.9366 34.4571C56.9295 34.4571 57.7489 34.1299 58.396 33.4847V33.4834ZM52.7884 35.9815C51.874 35.5077 51.1148 34.7917 50.5981 33.9157C50.0733 33.0353 49.8096 32.0352 49.8096 30.9196C49.8096 29.8078 50.0733 28.8104 50.5981 27.9392C51.1182 27.0684 51.8767 26.3566 52.7884 25.8839C53.7221 25.3898 54.7729 25.1428 55.9366 25.1428C57.1166 25.1428 58.1727 25.3898 59.1077 25.8839C60.0194 26.3566 60.778 27.0684 61.2981 27.9392C61.8228 28.8104 62.0838 29.8078 62.0838 30.9209C62.0838 32.0352 61.8228 33.034 61.2981 33.917C60.7809 34.7921 60.0218 35.5071 59.1077 35.9802C58.1727 36.473 57.1166 36.7213 55.9366 36.7213C54.7729 36.7213 53.7221 36.4717 52.7884 35.9815ZM72.8538 27.5134H69.1082V36.5742H66.412V27.5134H62.6448V25.2702H72.8538V27.5134ZM84.1148 27.5134H80.3679V36.5742H77.6717V27.5134H73.9072V25.2702H84.1135L84.1148 27.5134ZM88.3529 28.0088C87.7568 28.5121 87.3922 29.1784 87.2631 30.0128H93.8004C93.6847 29.1915 93.3322 28.5305 92.7429 28.0207C92.1536 27.5121 91.4204 27.2611 90.5432 27.2611C89.6781 27.2611 88.9502 27.5082 88.3529 28.0101V28.0088ZM96.323 31.7685H87.2846C87.442 32.599 87.8564 33.2574 88.5251 33.7462C89.1937 34.2311 90.0252 34.4755 91.0181 34.4755C92.2828 34.4755 93.3255 34.0669 94.1448 33.2508L95.5898 34.8803C95.0646 35.4925 94.39 35.9656 93.6282 36.2561C92.8371 36.5663 91.9464 36.7213 90.9535 36.7213C89.6848 36.7213 88.5722 36.4743 87.6075 35.9802C86.6762 35.5165 85.9016 34.8001 85.3768 33.917C84.8521 33.034 84.5884 32.0352 84.5884 30.9209C84.5884 29.8223 84.844 28.8301 85.3553 27.9484C85.8519 27.0799 86.5872 26.3643 87.4783 25.8826C88.3838 25.3898 89.405 25.1428 90.5432 25.1428C91.6652 25.1428 92.6662 25.3846 93.5515 25.8734C94.4354 26.3583 95.1256 27.0443 95.6221 27.926C96.1172 28.8078 96.3674 29.8262 96.3674 30.9866C96.3674 31.1706 96.3526 31.4281 96.323 31.7685ZM110.366 25.2702V36.5728H107.692V27.5121H102.02V36.5728H99.3206V25.2702H110.366ZM116.784 28.0088C116.188 28.5121 115.823 29.1784 115.694 30.0128H122.233C122.117 29.1915 121.765 28.5305 121.175 28.0207C120.586 27.5121 119.852 27.2611 118.976 27.2611C118.109 27.2611 117.381 27.5082 116.784 28.0101V28.0088ZM124.756 31.7685H115.716C115.877 32.599 116.289 33.2574 116.958 33.7462C117.626 34.2311 118.458 34.4755 119.449 34.4755C120.714 34.4755 121.758 34.0669 122.577 33.2508L124.022 34.8803C123.497 35.4927 122.822 35.9658 122.059 36.2561C121.268 36.5663 120.378 36.7213 119.385 36.7213C118.12 36.7213 117.005 36.4743 116.039 35.9802C115.107 35.5165 114.333 34.8001 113.808 33.917C113.283 33.034 113.02 32.0352 113.02 30.9209C113.02 29.8223 113.275 28.8301 113.786 27.9484C114.283 27.0799 115.018 26.3643 115.909 25.8826C116.816 25.3898 117.839 25.1428 118.976 25.1428C120.096 25.1428 121.099 25.3846 121.983 25.8734C122.867 26.3583 123.557 27.0443 124.053 27.926C124.55 28.8078 124.799 29.8262 124.799 30.9866C124.799 31.1706 124.785 31.4281 124.756 31.7685ZM138.044 25.2702V36.5728H135.348V27.5121H131.032L130.926 29.7566C130.854 31.252 130.713 32.5057 130.504 33.5149C130.296 34.5228 129.943 35.3205 129.447 35.9066C128.952 36.4914 128.271 36.7831 127.407 36.7831C127.005 36.7831 126.509 36.7043 125.919 36.5518L126.048 34.331C126.25 34.3717 126.422 34.3927 126.566 34.3927C127.113 34.3927 127.522 34.1772 127.796 33.7462C128.085 33.2739 128.265 32.7463 128.326 32.1995C128.404 31.6003 128.474 30.7435 128.529 29.6291L128.723 25.2689H138.044V25.2702ZM148.635 34.1588C149.052 33.8198 149.261 33.3257 149.261 32.6778C149.261 32.0444 149.059 31.5766 148.657 31.2809C148.253 30.984 147.644 30.8289 146.824 30.8144L144.365 30.7934V34.624L146.824 34.6451C147.614 34.6595 148.218 34.5005 148.635 34.1588ZM150.825 29.9682C151.606 30.6173 152 31.5372 152 32.7225C152 33.9617 151.569 34.921 150.706 35.5978C149.843 36.2745 148.628 36.607 147.06 36.5926L141.666 36.5715V25.2702H144.365V28.9734L147.449 28.9944C148.915 28.9944 150.04 29.319 150.825 29.9682Z" fill="white"/>
    </symbol>
    

  <symbol id="footer__logo" width="249" height="64" viewBox="0 0 249 64" fill="none" xmlns="http://www.w3.org/2000/svg">
    <path fill-rule="evenodd" clip-rule="evenodd" d="M32.5529 58.9797C17.4203 58.9797 5.10444 46.8754 5.10444 31.9978C5.10444 17.1181 17.4203 5.02028 32.5551 5.02028C47.6899 5.02028 60.0036 17.1181 60.0036 31.9978C60.0036 46.8754 47.6899 58.9797 32.5551 58.9797H32.5529ZM5.10444 58.9797V49.1936C7.65861 53.1239 11.0565 56.4633 15.0621 58.9797H5.10444ZM5.10444 5.02028H15.0621C11.0547 7.53462 7.65644 10.8744 5.10444 14.8064V5.02028ZM32.5551 0H0V64H32.5529C50.5331 64 65.1058 49.6724 65.1058 31.9978C65.108 14.3277 50.5353 0 32.5551 0ZM94.1764 24.351C95.9925 24.351 97.5904 24.0102 98.9679 23.3245C100.301 22.6857 101.409 21.671 102.148 20.4111C102.889 19.1452 103.259 17.6831 103.259 16.0162C103.259 14.3492 102.889 12.8828 102.148 11.6191C101.407 10.3604 100.3 9.34565 98.9679 8.70355C97.5904 8.02426 95.9925 7.67922 94.1786 7.67922H88.1706V24.3488H94.1786L94.1764 24.351ZM83.5775 3.85579H94.3902C97.0284 3.85579 99.3712 4.3604 101.421 5.36963C103.471 6.37671 105.06 7.79999 106.19 9.63946C107.321 11.4811 107.887 13.6074 107.887 16.0162C107.887 18.4228 107.321 20.5491 106.19 22.3907C105.06 24.2302 103.471 25.6556 101.421 26.6606C99.3712 27.6698 97.0284 28.1701 94.3902 28.1701H83.5752V3.85794L83.5775 3.85579ZM112.342 28.1744H116.758V9.62437H112.342V28.1744ZM112.553 5.82034C112.291 5.58478 112.083 5.29711 111.943 4.97655C111.803 4.65599 111.734 4.30992 111.742 3.96145C111.742 3.21962 112.013 2.60287 112.553 2.10472C113.095 1.60658 113.765 1.35643 114.568 1.35643C115.37 1.35643 116.04 1.59148 116.582 2.06806C117.124 2.54249 117.395 3.14199 117.395 3.85794C117.395 4.62349 117.131 5.26397 116.602 5.78583C116.073 6.3077 115.392 6.56864 114.568 6.56864C113.768 6.56864 113.095 6.31849 112.553 5.82034ZM135.329 22.1794C136.4 21.196 136.938 19.9194 136.938 18.3409C136.938 16.7925 136.4 15.5267 135.329 14.5541C134.256 13.5837 132.883 13.0963 131.21 13.0963C129.517 13.0963 128.133 13.5815 127.06 14.5541C125.989 15.5267 125.451 16.7925 125.451 18.3409C125.451 19.9194 125.989 21.196 127.06 22.1794C128.133 23.1671 129.517 23.6587 131.21 23.6587C132.883 23.6587 134.256 23.1671 135.329 22.1794ZM141.284 9.62221V25.3602C141.284 31.8943 137.89 35.1549 131.109 35.1549C129.364 35.1647 127.626 34.9368 125.945 34.4778C124.32 34.0249 122.978 33.3715 121.918 32.5176L123.897 29.2505C124.722 29.9212 125.762 30.4624 127.027 30.8678C128.285 31.269 129.561 31.4717 130.862 31.4717C132.929 31.4717 134.45 31.0102 135.42 30.0829C136.385 29.1556 136.868 27.7453 136.868 25.8433V24.8728C136.11 25.6837 135.193 26.2961 134.113 26.7145C132.973 27.1407 131.762 27.3529 130.542 27.3398C128.748 27.3398 127.13 26.9625 125.682 26.212C124.26 25.4832 123.072 24.3829 122.251 23.0334C121.413 21.664 120.999 20.1049 120.999 18.3409C120.999 16.5855 121.416 15.0264 122.251 13.6721C123.091 12.3157 124.234 11.2719 125.682 10.5258C127.13 9.7861 128.748 9.41519 130.542 9.41519C131.816 9.39914 133.08 9.62318 134.267 10.0751C135.387 10.5193 136.321 11.1857 137.079 12.0892V9.62221H141.284ZM147.079 28.1744H151.496V9.62437H147.079V28.1744ZM147.29 5.82034C147.027 5.58498 146.819 5.2974 146.679 4.97683C146.538 4.65626 146.47 4.31008 146.477 3.96145C146.477 3.21962 146.748 2.60287 147.29 2.10472C147.833 1.60658 148.503 1.35643 149.305 1.35643C150.105 1.35643 150.777 1.59148 151.317 2.06806C151.859 2.54249 152.133 3.14199 152.133 3.85794C152.133 4.62349 151.868 5.26397 151.339 5.78583C150.808 6.3077 150.127 6.56864 149.305 6.56864C148.503 6.56864 147.833 6.31849 147.29 5.82034ZM168.634 27.1652C168.116 27.5835 167.488 27.8962 166.741 28.1032C165.977 28.3146 165.187 28.4199 164.393 28.4159C162.322 28.4159 160.719 27.8876 159.589 26.8201C158.458 25.7527 157.892 24.2022 157.892 22.1621V13.2365H154.784V9.76238H157.892V5.52921H162.308V9.76238H167.362V13.2386H162.308V22.0586C162.308 22.9644 162.533 23.6544 162.981 24.1289C163.428 24.6033 164.076 24.8362 164.922 24.8362C165.914 24.8362 166.736 24.5839 167.397 24.0749L168.632 27.1652H168.634ZM181.831 24.5084C182.691 24.0124 183.301 23.3008 183.654 22.3713V20.217H179.092C176.553 20.217 175.277 21.0408 175.277 22.684C175.277 23.4711 175.594 24.1008 176.231 24.5623C176.866 25.0259 177.749 25.2524 178.885 25.2524C179.991 25.2524 180.972 25.0065 181.831 24.5084ZM185.86 11.3819C187.332 12.6887 188.071 14.6576 188.071 17.3014V28.1701H183.901V25.9144C183.333 26.7436 182.528 27.3903 181.587 27.7733C180.584 28.2024 179.378 28.4202 177.961 28.4202C176.551 28.4202 175.312 28.1787 174.252 27.7043C173.192 27.2299 172.374 26.57 171.799 25.7246C171.219 24.8766 170.916 23.8765 170.93 22.8565C170.93 21.1896 171.563 19.8547 172.821 18.8476C174.082 17.8362 176.066 17.3359 178.772 17.3359H183.654V17.0556C183.654 15.7574 183.257 14.7654 182.468 14.071C181.679 13.3766 180.509 13.0251 178.955 13.0251C177.895 13.0251 176.85 13.1869 175.825 13.5147C174.801 13.8381 173.934 14.291 173.225 14.8689L171.495 11.7097C172.486 10.9635 173.674 10.4007 175.065 10.0039C176.503 9.60705 177.99 9.4096 179.484 9.41735C182.261 9.41735 184.388 10.0686 185.86 11.3797V11.3819ZM193.722 28.1722H198.139V2.39801H193.722V28.1722ZM208.416 20.5232H220.245V16.5122H208.416V20.5232ZM95.6619 54.9471C96.7198 53.8818 97.251 52.4779 97.251 50.742C97.251 49.0038 96.722 47.6043 95.6619 46.5368C94.6018 45.4737 93.2596 44.941 91.633 44.941C90.0087 44.941 88.6687 45.4737 87.6218 46.5368C86.5727 47.6043 86.0503 49.0038 86.0503 50.742C86.0503 52.4779 86.5727 53.8818 87.6218 54.9471C88.6687 56.0081 90.0087 56.545 91.633 56.545C93.2596 56.545 94.6018 56.0081 95.6619 54.9493V54.9471ZM86.4757 59.0466C84.9777 58.2691 83.7341 57.0941 82.8876 55.6566C82.0281 54.2117 81.5961 52.5707 81.5961 50.7398C81.5961 48.9154 82.0281 47.2787 82.8876 45.8489C83.7396 44.4199 84.9823 43.2519 86.4757 42.4762C88.0053 41.6653 89.7266 41.2599 91.633 41.2599C93.5659 41.2599 95.2961 41.6653 96.8278 42.4762C98.3213 43.2519 99.5639 44.4199 100.416 45.8489C101.275 47.2787 101.703 48.9154 101.703 50.742C101.703 52.5707 101.275 54.2096 100.416 55.6587C99.5687 57.0947 98.3252 58.2681 96.8278 59.0444C95.2961 59.8531 93.5659 60.2607 91.633 60.2607C89.7266 60.2607 88.0053 59.8509 86.4757 59.0466ZM119.346 45.1502H113.21V60.0191H108.793V45.1502H102.622V41.4691H119.346V45.1502ZM137.793 45.1502H131.655V60.0191H127.238V45.1502H121.072V41.4691H137.791L137.793 45.1502ZM144.736 45.9632C143.76 46.7891 143.162 47.8825 142.951 49.2518H153.66C153.47 47.904 152.893 46.8193 151.928 45.9826C150.962 45.1481 149.761 44.7362 148.324 44.7362C146.907 44.7362 145.714 45.1416 144.736 45.9654V45.9632ZM157.792 52.1329H142.986C143.244 53.4958 143.923 54.5762 145.018 55.3784C146.113 56.1741 147.475 56.5752 149.102 56.5752C151.174 56.5752 152.882 55.9046 154.224 54.5654L156.591 57.2394C155.731 58.2441 154.626 59.0205 153.378 59.4973C152.082 60.0062 150.623 60.2607 148.996 60.2607C146.918 60.2607 145.095 59.8552 143.515 59.0444C141.989 58.2834 140.72 57.1079 139.861 55.6587C139.001 54.2096 138.569 52.5707 138.569 50.742C138.569 48.9391 138.988 47.311 139.825 45.864C140.639 44.4387 141.844 43.2645 143.303 42.474C144.787 41.6653 146.459 41.2599 148.324 41.2599C150.162 41.2599 151.802 41.6567 153.252 42.4589C154.7 43.2547 155.831 44.3803 156.644 45.8273C157.455 47.2743 157.865 48.9456 157.865 50.8498C157.865 51.1517 157.841 51.5744 157.792 52.1329ZM180.798 41.4691V60.017H176.416V45.1481H167.124V60.017H162.703V41.4691H180.798ZM191.311 45.9632C190.334 46.7891 189.737 47.8825 189.525 49.2518H200.237C200.047 47.904 199.47 46.8193 198.504 45.9826C197.539 45.1481 196.336 44.7362 194.901 44.7362C193.482 44.7362 192.289 45.1416 191.311 45.9654V45.9632ZM204.369 52.1329H189.561C189.825 53.4958 190.5 54.5762 191.595 55.3784C192.69 56.1741 194.052 56.5752 195.677 56.5752C197.748 56.5752 199.459 55.9046 200.801 54.5654L203.168 57.2394C202.307 58.2444 201.201 59.0209 199.952 59.4973C198.657 60.0062 197.197 60.2607 195.571 60.2607C193.499 60.2607 191.672 59.8552 190.09 59.0444C188.564 58.2834 187.295 57.1079 186.435 55.6587C185.576 54.2096 185.144 52.5707 185.144 50.742C185.144 48.9391 185.563 47.311 186.4 45.864C187.214 44.4387 188.418 43.2645 189.878 42.474C191.364 41.6653 193.039 41.2599 194.901 41.2599C196.737 41.2599 198.379 41.6567 199.827 42.4589C201.275 43.2547 202.406 44.3803 203.219 45.8273C204.032 47.2743 204.44 48.9456 204.44 50.8498C204.44 51.1517 204.418 51.5744 204.369 52.1329ZM226.138 41.4691V60.017H221.721V45.1481H214.651L214.477 48.8313C214.36 51.2854 214.129 53.3427 213.787 54.9989C213.445 56.6529 212.868 57.9619 212.055 58.9236C211.243 59.8833 210.128 60.362 208.713 60.362C208.054 60.362 207.241 60.2326 206.276 59.9825L206.487 56.338C206.818 56.4049 207.1 56.4394 207.336 56.4394C208.231 56.4394 208.901 56.0857 209.35 55.3784C209.823 54.6033 210.119 53.7375 210.219 52.8402C210.346 51.8569 210.461 50.4508 210.551 48.6221L210.869 41.4669H226.138V41.4691ZM243.488 56.0555C244.171 55.4992 244.513 54.6883 244.513 53.6252C244.513 52.5858 244.182 51.818 243.523 51.3328C242.862 50.8455 241.863 50.591 240.521 50.5673L236.492 50.5328V56.8189L240.521 56.8534C241.815 56.8771 242.805 56.6162 243.488 56.0555ZM247.076 49.1785C248.354 50.2438 249 51.7534 249 53.6985C249 55.7321 248.295 57.3063 246.88 58.4169C245.467 59.5275 243.477 60.073 240.907 60.0493L232.071 60.0148V41.4691H236.492V47.5461L241.544 47.5806C243.946 47.5806 245.789 48.1132 247.076 49.1785Z" fill="#ffffff"/>
  </symbol>

  <symbol id="pin" width="37" height="37" viewBox="0 0 37 37" fill="none" xmlns="http://www.w3.org/2000/svg">
    <path d="M18.5002 17.7291C17.478 17.7291 16.4977 17.323 15.7749 16.6002C15.0521 15.8774 14.646 14.8971 14.646 13.8749C14.646 12.8527 15.0521 11.8724 15.7749 11.1496C16.4977 10.4268 17.478 10.0208 18.5002 10.0208C19.5224 10.0208 20.5027 10.4268 21.2255 11.1496C21.9483 11.8724 22.3543 12.8527 22.3543 13.8749C22.3543 14.3811 22.2546 14.8822 22.0609 15.3498C21.8673 15.8175 21.5834 16.2423 21.2255 16.6002C20.8676 16.9581 20.4427 17.242 19.9751 17.4357C19.5075 17.6294 19.0063 17.7291 18.5002 17.7291ZM18.5002 3.08325C15.638 3.08325 12.8931 4.22023 10.8693 6.24406C8.84547 8.26789 7.7085 11.0128 7.7085 13.8749C7.7085 21.9687 18.5002 33.9166 18.5002 33.9166C18.5002 33.9166 29.2918 21.9687 29.2918 13.8749C29.2918 11.0128 28.1549 8.26789 26.131 6.24406C24.1072 4.22023 21.3623 3.08325 18.5002 3.08325Z" fill="white"/>
  </symbol>

  <symbol id="left-arrow" xmlns="http://www.w3.org/2000/svg" width="24" height="24" viewBox="0 0 24 24" fill="none">
    <path d="M20.5 3.00105C20.5003 2.54474 20.3757 2.09705 20.1397 1.7065C19.9037 1.31595 19.5654 0.997435 19.1613 0.785475C18.7572 0.573514 18.3028 0.476191 17.8473 0.504056C17.3918 0.531924 16.9525 0.68409 16.5773 0.943692L16.5772 0.943765L3.57717 9.94376L3.57562 9.94484L3.57253 9.94699C3.24202 10.1777 2.9721 10.4847 2.78572 10.8421C2.59934 11.1994 2.50201 11.5965 2.50201 11.9996C2.50201 12.4026 2.59934 12.7997 2.78572 13.157C2.9721 13.5144 3.24202 13.8215 3.57253 14.0521L3.57329 14.0526L3.57639 14.0548L3.57718 14.0553L16.5774 23.0555L16.5775 23.0556C16.9526 23.3151 17.3915 23.467 17.8467 23.495C18.3019 23.523 18.7562 23.4259 19.1602 23.2142C19.5642 23.0025 19.9026 22.6844 20.1387 22.2942C20.375 21.9039 20.4998 21.4562 20.5 21.0002V21.0001L20.5 3.00105ZM20.5 3.00105L20 3.00072M20.5 3.00105V3.00072H20M20 3.00072L20 21.0001L3.85868 " stroke="currentColor"/>
  </symbol>
    
    
  <symbol id="icon-close" width="28" height="28" viewBox="0 0 28 28" fill="none" xmlns="http://www.w3.org/2000/svg">
    <rect width="36.4503" height="3.14436" transform="matrix(0.707109 -0.707105 0.707109 0.707105 0.000976562 25.7742)" fill="white"/>
    <rect width="36.4503" height="3.14436" transform="matrix(-0.707109 -0.707105 -0.707109 0.707105 27.998 25.7742)" fill="white"/>
  </symbol>

  <symbol id="tg" width="40" height="40" viewBox="0 0 40 40" fill="none" xmlns="http://www.w3.org/2000/svg">
    <rect width="40" height="40" rx="5" fill="white"/>
    <g clip-path="url(#clip0_4624_5053)">
    <path d="M17.0288 28.8505L17.4016 23.5365L27.6283 14.843C28.081 14.4536 27.535 14.2651 26.9358 14.6043L14.3124 22.1294L8.85284 20.4963C7.68105 20.1822 7.66773 19.4159 9.11916 18.8631L30.3846 11.1244C31.3567 10.7099 32.2888 11.3506 31.916 12.7576L28.294 28.8505C28.041 29.9937 27.3087 30.2701 26.2967 29.7425L20.7839 25.8983L18.134 28.3229C17.8278 28.6118 17.5748 28.8505 17.0288 28.8505Z" fill="#161616"/>
    </g>
    <defs>
    <clipPath id="clip0_4624_5053">
    <rect width="24" height="19" fill="white" transform="translate(8 11)"/>
    </clipPath>
    </defs>
  </symbol>
    

  <symbol id="vk" width="40" height="40" viewBox="0 0 40 40" fill="none" xmlns="http://www.w3.org/2000/svg">
    <rect width="40" height="40" rx="5" fill="white"/>
    <path d="M21.1611 28C12.2779 28 7.21112 21.994 7 12H11.4497C11.5959 19.3353 14.8762 22.4424 17.4746 23.0831V12H21.6647V18.3263C24.2306 18.0541 26.9261 15.1712 27.8355 12H32.0254C31.3271 15.9079 28.404 18.7908 26.3253 19.976C28.404 20.9369 31.7333 23.4515 33 28H28.3877C27.3971 24.957 24.9289 22.6026 21.6647 22.2823V28H21.1611Z" fill="#161616"/>
  </symbol>
    



</svg>