<svg width="66" height="37" viewBox="0 0 66 37" fill="none" xmlns="http://www.w3.org/2000/svg">
<path fill-rule="evenodd" clip-rule="evenodd" d="M43.5768 12.1333C43.5768 13.5259 43.0224 14.6889 41.9136 15.6222C40.8221 16.5407 39.4448 17 37.7816 17C36.0491 17 34.6371 16.5556 33.5456 15.6667C32.4542 14.7778 31.8651 13.5926 31.7785 12.1111H33.8315C33.9701 13.1926 34.3946 14.0296 35.1049 14.6222C35.8325 15.2 36.7421 15.4889 37.8336 15.4889C38.925 15.4889 39.8259 15.1852 40.5362 14.5778C41.2639 13.9556 41.6277 13.1704 41.6277 12.2222C41.6277 11.3185 41.3245 10.6296 40.7181 10.1556C40.1118 9.66667 38.9857 9.20741 37.3398 8.77778C36.231 8.4963 35.4514 8.26667 35.0009 8.08889C34.5505 7.8963 34.1347 7.64444 33.7535 7.33333C32.8526 6.60741 32.4022 5.63704 32.4022 4.42222C32.4022 3.14815 32.9046 2.0963 33.9095 1.26667C34.9143 0.422222 36.1877 0 37.7296 0C39.3062 0 40.5969 0.414815 41.6017 1.24444C42.6066 2.05926 43.109 3.12593 43.109 4.44445H41.108C41.108 3.57037 40.7788 2.86667 40.1204 2.33333C39.4794 1.78519 38.6651 1.51111 37.6776 1.51111C36.7248 1.51111 35.9278 1.78519 35.2868 2.33333C34.6631 2.86667 34.3512 3.54815 34.3512 4.37778C34.3512 5.20741 34.6544 5.84444 35.2608 6.28889C35.6593 6.58519 36.6035 6.92593 38.0934 7.31111C39.7566 7.74074 40.9434 8.17778 41.6537 8.62222C42.9357 9.43704 43.5768 10.6074 43.5768 12.1333ZM11.6989 14.4889C13.57 13.0074 14.5056 11.0296 14.5056 8.55554C14.5056 5.37036 13.0503 3.04443 10.1397 1.57776C9.23878 1.1185 8.22527 0.792579 7.09915 0.599986C5.99036 0.392578 4.56105 0.288875 2.81124 0.288875L0 0.288875V16.7111L3.46092 16.7111C7.08183 16.7111 9.82783 15.9704 11.6989 14.4889ZM11.6469 5.17776C12.2533 6.15554 12.5565 7.25924 12.5565 8.48887C12.5565 10.7259 11.6383 12.4815 9.80184 13.7555C9.03955 14.2741 8.12132 14.6518 7.04718 14.8889C5.97303 15.1111 4.58704 15.2222 2.8892 15.2222L1.92307 15.2222V1.77776H2.8892C5.64386 1.77776 7.70553 2.13332 9.0742 2.84443C10.183 3.40739 11.0406 4.18517 11.6469 5.17776ZM29.7009 16.7111H31.8059L23.5419 0.288889H21.3849L13.1469 16.7111H15.174L17.9806 11.1778H26.9203L29.7009 16.7111ZM22.4764 2.15556L26.1666 9.68889H18.7082L22.4764 2.15556ZM64.0769 16.7111H66V0.288887H64.0769V7.51111L46.5354 7.51111V0.288889H44.6123V16.7111H46.5354V9L64.0769 9V16.7111ZM53.3818 32.1333C53.3818 33.5259 52.8285 34.6889 51.722 35.6222C50.6329 36.5407 49.2584 37 47.5987 37C45.8698 37 44.4608 36.5556 43.3716 35.6667C42.2824 34.7778 41.6946 33.5926 41.6082 32.1111H43.6569C43.7952 33.1926 44.2188 34.0296 44.9276 34.6222C45.6537 35.2 46.5614 35.4889 47.6506 35.4889C48.7397 35.4889 49.6388 35.1852 50.3476 34.5778C51.0737 33.9556 51.4368 33.1704 51.4368 32.2222C51.4368 31.3185 51.1342 30.6296 50.5291 30.1556C49.924 29.6667 48.8003 29.2074 47.1578 28.7778C46.0514 28.4963 45.2734 28.2667 44.8239 28.0889C44.3744 27.8963 43.9594 27.6444 43.5791 27.3333C42.6801 26.6074 42.2306 25.637 42.2306 24.4222C42.2306 23.1481 42.7319 22.0963 43.7347 21.2667C44.7374 20.4222 46.0081 20 47.5468 20C49.1201 20 50.4081 20.4148 51.4109 21.2444C52.4136 22.0593 52.915 23.1259 52.915 24.4444H50.9181C50.9181 23.5704 50.5896 22.8667 49.9327 22.3333C49.293 21.7852 48.4804 21.5111 47.495 21.5111C46.5441 21.5111 45.7488 21.7852 45.1091 22.3333C44.4868 22.8667 44.1755 23.5481 44.1755 24.3778C44.1755 25.2074 44.4781 25.8444 45.0832 26.2889C45.4809 26.5852 46.4231 26.9259 47.9099 27.3111C49.5696 27.7407 50.7539 28.1778 51.4627 28.6222C52.7421 29.437 53.3818 30.6074 53.3818 32.1333ZM21.4153 34.4889C23.2824 33.0074 24.216 31.0296 24.216 28.5555C24.216 25.3704 22.7638 23.0444 19.8593 21.5778C18.9602 21.1185 17.9489 20.7926 16.8251 20.6C15.7186 20.3926 14.2923 20.2889 12.5461 20.2889H0V36.7111H13.1945C16.8078 36.7111 19.5481 35.9704 21.4153 34.4889ZM21.3634 25.1778C21.9685 26.1555 22.271 27.2592 22.271 28.4889C22.271 30.7259 21.3547 32.4815 19.5221 33.7555C18.7614 34.2741 17.8451 34.6518 16.7732 34.8889C15.7013 35.1111 14.3182 35.2222 12.6239 35.2222H1.91904V21.7778H12.6239C15.3728 21.7778 17.4302 22.1333 18.796 22.8444C19.9025 23.4074 20.7583 24.1852 21.3634 25.1778ZM39.4757 36.7111H41.5762L33.3295 20.2889H31.1771L22.9563 36.7111H24.9791L27.7799 31.1778H36.7008L39.4757 36.7111ZM32.2663 22.1556L35.9488 29.6889H28.506L32.2663 22.1556ZM64.0809 36.7111H66V20.2889H64.0809V27.5111H57.8435V20.2889H55.9244V36.7111H57.8435V29H64.0809V36.7111Z" fill="#252422"/>
</svg>
