<svg width="76" height="35" viewBox="0 0 76 35" fill="none" xmlns="http://www.w3.org/2000/svg">
<path d="M29.6228 4.65354H2.35684C1.05519 4.65354 0 5.70319 0 6.99801V27.7637C0 29.0585 1.05519 30.1082 2.35684 30.1082H29.3864L27.6116 28.3498H2.35684C2.03143 28.3498 1.76763 28.0874 1.76763 27.7637V6.99801C1.76763 6.67431 2.03143 6.41189 2.35684 6.41189H27.848L29.6228 4.65354Z" fill="black"/>
<path d="M45.0579 17.4727C45.0579 24.4932 41.8843 30.7794 36.8809 35L35.3453 33.4787C39.9596 29.651 42.894 23.9014 42.894 17.4727C42.894 11.0743 39.9871 5.34848 35.4104 1.52088L36.9455 0C41.9116 4.22008 45.0579 10.4824 45.0579 17.4727Z" fill="black"/>
<path d="M38.1567 17.4727C38.1567 22.6058 35.7429 27.1804 31.9786 30.1431L30.4415 28.6203C33.8205 26.0551 35.9994 22.016 35.9994 17.4727C35.9994 12.9598 33.8495 8.94429 30.5091 6.37672L32.0451 4.85497C35.7713 7.81908 38.1567 12.3699 38.1567 17.4727Z" fill="black"/>
<path d="M31.9074 17.4727C31.9074 20.8981 30.1658 23.9204 27.5121 25.718L25.9557 24.176C28.234 22.7976 29.7548 20.3111 29.7548 17.4727C29.7548 14.6652 28.2668 12.2019 26.0296 10.8147L27.5829 9.27579C30.1968 11.079 31.9074 14.0779 31.9074 17.4727Z" fill="black"/>
<path d="M19.1968 17.4726C19.1968 18.9148 20.3769 20.084 21.8326 20.084C23.2884 20.084 24.4685 18.9148 24.4685 17.4726C24.4685 16.0303 23.2884 14.8612 21.8326 14.8612C20.3769 14.8612 19.1968 16.0303 19.1968 17.4726Z" fill="black"/>
<path d="M53.3308 6.35816L55.8837 13.4996L58.423 6.35816H61.1125V16.2047H59.0578V13.5131L59.2626 8.86714L56.58 16.2047H55.1738L52.498 8.8739L52.7028 13.5131V16.2047H50.655V6.35816H53.3308Z" fill="black"/>
<path d="M66.1364 10.7945L68.2047 6.35816H70.4436L67.1808 12.634V16.2047H65.0988V12.634L61.836 6.35816H64.0818L66.1364 10.7945Z" fill="black"/>
<path d="M74.0204 12.776H70.1774V11.2003H74.0204V12.776Z" fill="black"/>
<path d="M58.737 28.2543H56.6892L52.7028 21.7756V28.2543H50.655V18.4077H52.7028L56.696 24.9V18.4077H58.737V28.2543Z" fill="black"/>
<path d="M66.505 24.2304H62.5732V28.2543H60.5254V18.4077H66.9965V20.0511H62.5732V22.5939H66.505V24.2304Z" fill="black"/>
<path d="M75.9863 24.9743C75.909 26.0338 75.5131 26.8679 74.7986 27.4766C74.0887 28.0852 73.1513 28.3895 71.9863 28.3895C70.7121 28.3895 69.7087 27.9657 68.976 27.1181C68.2479 26.266 67.8839 25.0983 67.8839 23.615V23.0132C67.8839 22.0664 68.0522 21.2323 68.389 20.5109C68.7257 19.7896 69.2058 19.2373 69.8293 18.8541C70.4573 18.4663 71.1854 18.2725 72.0136 18.2725C73.1604 18.2725 74.0842 18.5768 74.785 19.1854C75.4858 19.7941 75.8908 20.6484 76 21.7485H73.9522C73.9021 21.1128 73.7224 20.653 73.4129 20.3689C73.108 20.0804 72.6416 19.9361 72.0136 19.9361C71.331 19.9361 70.8191 20.1796 70.4778 20.6665C70.141 21.1489 69.9681 21.8996 69.959 22.9185V23.6624C69.959 24.7264 70.1205 25.5041 70.4436 25.9955C70.7713 26.4869 71.2855 26.7327 71.9863 26.7327C72.6188 26.7327 73.0898 26.5906 73.3993 26.3066C73.7133 26.0181 73.893 25.574 73.9385 24.9743H75.9863Z" fill="black"/>
</svg>
